<?xml version="1.0" standalone="no"?>
<!DOCTYPE svg PUBLIC "-//W3C//DTD SVG 20010904//EN"
 "http://www.w3.org/TR/2001/REC-SVG-20010904/DTD/svg10.dtd">
<svg version="1.0" xmlns="http://www.w3.org/2000/svg"
 width="1897.000000pt" height="798.000000pt" viewBox="0 0 1897.000000 798.000000"
 preserveAspectRatio="xMidYMid meet">

<g transform="translate(0.000000,798.000000) scale(0.100000,-0.100000)"
fill="#000000" stroke="none">
<path d="M0 3985 l0 -3985 9485 0 9485 0 0 3985 0 3985 -9485 0 -9485 0 0
-3985z m15360 3765 c19 -19 20 -33 20 -230 0 -197 -1 -211 -20 -230 -20 -20
-33 -20 -1090 -20 -1057 0 -1070 0 -1090 20 -19 19 -20 33 -20 230 0 197 1
211 20 230 20 20 33 20 1090 20 1057 0 1070 0 1090 -20z m-13390 -68 c0 -32
-5 -41 -31 -56 l-31 -18 38 -23 c39 -22 39 -22 77 -3 20 10 37 22 37 26 0 4
-14 15 -30 24 -24 14 -30 24 -30 53 0 19 2 35 4 35 2 0 37 -19 78 -43 l73 -44
3 -96 3 -96 -31 17 c-25 14 -30 23 -30 55 l0 38 -40 -22 c-38 -22 -40 -25 -40
-71 l0 -47 35 20 c33 20 37 20 60 5 14 -9 25 -20 25 -24 0 -4 -34 -26 -76 -50
l-75 -43 -62 35 c-34 19 -71 41 -81 49 -19 14 -19 15 13 31 30 16 35 16 56 2
34 -22 35 -21 35 28 0 40 -4 47 -34 65 -18 12 -36 21 -40 21 -3 0 -6 -18 -6
-40 0 -34 -4 -42 -30 -55 l-30 -16 0 95 0 94 78 46 c42 25 78 45 80 46 1 0 2
-17 2 -38z m15046 -76 c29 -29 34 -41 34 -83 0 -78 -47 -123 -129 -123 -31 0
-47 7 -75 34 -31 29 -36 39 -36 80 0 26 5 56 11 67 17 32 70 59 118 59 36 0
49 -6 77 -34z m-14376 4 c0 -13 -7 -20 -20 -20 -13 0 -20 7 -20 20 0 13 7 20
20 20 13 0 20 -7 20 -20z m13319 -6 c22 -29 28 -79 10 -90 -7 -4 3 -18 25 -36
20 -16 36 -36 36 -44 0 -22 -13 -17 -45 16 -25 26 -33 29 -71 23 -37 -5 -46
-2 -68 20 -54 54 -20 137 55 137 29 0 42 -6 58 -26z m-13649 -59 c5 -67 6 -70
30 -70 24 0 25 3 30 70 5 63 7 70 28 73 21 3 22 0 22 -72 0 -69 -2 -76 -26
-95 -30 -23 -64 -27 -97 -10 -33 18 -37 28 -37 107 0 70 1 73 23 70 20 -3 22
-10 27 -73z m410 50 c0 -14 5 -25 10 -25 6 0 10 -7 10 -15 0 -8 -4 -15 -10
-15 -5 0 -10 -16 -10 -35 0 -19 5 -35 10 -35 6 0 10 -9 10 -20 0 -20 -15 -25
-44 -14 -11 4 -16 19 -16 45 0 22 -6 48 -12 59 -10 15 -10 22 0 32 6 6 12 20
12 30 0 11 7 18 20 18 15 0 20 -7 20 -25z m13660 0 c0 -20 -5 -25 -25 -25 -20
0 -25 5 -25 25 0 20 5 25 25 25 20 0 25 -5 25 -25z m70 0 c0 -18 -5 -25 -20
-25 -15 0 -20 7 -20 25 0 18 5 25 20 25 15 0 20 -7 20 -25z m80 0 c0 -20 -5
-25 -25 -25 -20 0 -25 5 -25 25 0 20 5 25 25 25 20 0 25 -5 25 -25z m-13032
-11 c12 -8 22 -22 22 -31 0 -25 -30 -53 -57 -53 -18 0 -23 -5 -23 -25 0 -16
-6 -25 -15 -25 -12 0 -15 15 -15 75 l0 75 33 0 c18 0 43 -7 55 -16z m342 -59
l0 -75 -38 0 c-46 0 -62 14 -62 55 0 38 16 55 52 55 21 0 28 5 28 20 0 11 5
20 10 20 6 0 10 -32 10 -75z m1056 61 c26 -19 10 -33 -20 -17 -13 8 -29 10
-35 7 -21 -13 -11 -33 20 -42 40 -12 58 -37 43 -61 -13 -22 -70 -29 -90 -12
-18 15 -18 29 1 29 8 0 15 -5 15 -11 0 -6 12 -9 28 -7 38 4 34 29 -7 43 -48
16 -60 38 -37 64 22 24 54 27 82 7z m194 -61 c0 -60 -3 -75 -15 -75 -12 0 -15
15 -15 75 0 60 3 75 15 75 12 0 15 -15 15 -75z m255 65 c3 -5 -3 -10 -15 -10
-12 0 -18 5 -15 10 3 6 10 10 15 10 5 0 12 -4 15 -10z m915 -55 l0 -65 35 0
c19 0 35 -4 35 -10 0 -5 -22 -10 -50 -10 l-50 0 0 68 c0 38 3 72 7 75 17 17
23 2 23 -58z m560 55 c0 -5 -7 -10 -15 -10 -8 0 -15 5 -15 10 0 6 7 10 15 10
8 0 15 -4 15 -10z m876 -7 c20 -20 1 -32 -21 -13 -8 7 -22 10 -30 6 -27 -10
-16 -33 25 -49 41 -16 52 -41 28 -65 -23 -23 -98 -12 -98 14 0 16 16 19 25 4
3 -5 17 -10 31 -10 35 0 33 36 -3 45 -53 13 -67 40 -37 69 20 21 58 20 80 -1z
m838 11 c18 -7 21 -45 5 -61 -17 -17 -1 -37 17 -22 15 13 16 12 18 -31 1 -29
0 -30 -44 -30 -64 0 -89 29 -54 64 11 11 12 21 5 33 -19 35 13 63 53 47z m222
-8 c26 -19 10 -33 -20 -17 -13 8 -29 10 -35 7 -21 -13 -11 -33 20 -42 40 -12
58 -37 43 -61 -13 -22 -70 -29 -90 -12 -18 15 -18 29 1 29 8 0 15 -5 15 -11 0
-6 12 -9 28 -7 38 4 34 29 -7 43 -48 16 -60 38 -37 64 22 24 54 27 82 7z m394
4 c0 -5 -7 -10 -15 -10 -8 0 -15 5 -15 10 0 6 7 10 15 10 8 0 15 -4 15 -10z
m984 -6 c30 -30 16 -46 -15 -18 -39 35 -85 -18 -60 -72 13 -28 48 -32 67 -7
16 22 32 8 18 -15 -6 -9 -27 -18 -46 -20 -44 -4 -72 25 -72 75 0 59 69 96 108
57z m806 6 c0 -5 -7 -10 -15 -10 -8 0 -15 5 -15 10 0 6 7 10 15 10 8 0 15 -4
15 -10z m-6790 -14 c0 -8 6 -17 13 -20 10 -5 10 -7 0 -12 -15 -7 -18 -74 -3
-74 6 0 10 -4 10 -10 0 -21 -40 -10 -44 13 -12 59 -13 83 -5 99 12 22 29 24
29 4z m1120 0 c0 -8 6 -17 13 -20 10 -5 10 -7 0 -12 -19 -9 -16 -65 5 -80 15
-12 14 -13 -10 -14 -26 0 -28 3 -28 44 0 26 -5 47 -12 50 -10 5 -10 7 0 12 6
3 12 12 12 20 0 8 5 14 10 14 6 0 10 -6 10 -14z m3090 0 c0 -8 6 -17 13 -20
10 -5 10 -7 0 -12 -15 -7 -18 -74 -3 -74 6 0 10 -4 10 -10 0 -21 -40 -10 -44
13 -12 59 -13 83 -5 99 12 22 29 24 29 4z m2640 0 c0 -8 6 -17 13 -20 10 -5
10 -7 0 -12 -15 -7 -18 -74 -3 -74 6 0 10 -4 10 -10 0 -21 -40 -10 -44 13 -12
59 -13 83 -5 99 12 22 29 24 29 4z m713 7 l-33 -4 0 -59 c0 -53 2 -59 23 -63
19 -4 18 -4 -5 -6 l-28 -1 0 70 0 70 38 -2 c36 -1 36 -1 5 -5z m744 -100 c-2
-21 -4 -4 -4 37 0 41 2 58 4 38 2 -21 2 -55 0 -75z m-9886 59 c6 -14 9 -44 7
-66 -2 -33 -7 -42 -25 -44 -20 -3 -22 2 -25 50 -2 39 -7 53 -18 53 -11 0 -16
-14 -20 -50 -4 -42 -8 -50 -27 -53 -22 -3 -23 0 -23 69 l0 72 28 -6 c15 -3 34
-2 41 2 21 14 52 0 62 -27z m9197 13 c-3 -3 -9 2 -12 12 -6 14 -5 15 5 6 7 -7
10 -15 7 -18z m-9128 -55 c0 -63 -2 -70 -20 -70 -18 0 -20 7 -20 70 0 63 2 70
20 70 18 0 20 -7 20 -70z m175 30 l13 -35 11 28 c6 16 11 33 11 38 0 5 11 9
24 9 l25 0 -26 -77 c-31 -94 -37 -103 -74 -103 -33 0 -38 16 -12 35 19 14 19
10 -25 133 -3 10 2 13 18 10 16 -2 27 -14 35 -38z m785 20 c0 -5 -7 -10 -15
-10 -11 0 -15 -12 -15 -45 0 -33 -4 -45 -15 -45 -12 0 -15 13 -15 55 0 54 0
55 30 55 17 0 30 -4 30 -10z m104 -6 c19 -19 21 -54 3 -78 -21 -28 -79 -18
-91 16 -20 56 47 103 88 62z m198 -26 c2 -31 8 -44 21 -46 14 -3 17 4 17 42 0
34 4 46 15 46 12 0 15 -13 15 -56 l0 -55 -42 3 -43 3 -3 53 c-2 30 1 52 7 52
5 0 11 -19 13 -42z m172 36 c9 -3 16 -12 16 -20 0 -17 -12 -18 -27 -3 -20 20
-45 2 -41 -28 3 -25 7 -28 36 -25 24 2 33 -1 30 -10 -3 -8 -21 -13 -44 -13
-33 0 -40 4 -48 27 -17 49 28 91 78 72z m197 -10 c12 -15 10 -16 -19 -10 -41
10 -43 -8 -1 -23 24 -8 30 -15 27 -33 -3 -19 -9 -23 -42 -23 -25 0 -41 5 -44
14 -3 10 0 12 14 7 30 -12 36 -12 41 0 2 7 -10 17 -27 22 -16 6 -30 17 -30 24
0 36 57 51 81 22z m751 -1 c38 -34 15 -93 -37 -93 -24 0 -38 6 -45 19 -33 63
30 121 82 74z m120 -25 c2 -31 8 -44 21 -46 14 -3 17 4 17 42 0 34 4 46 15 46
12 0 15 -13 15 -56 l0 -55 -42 3 -43 3 -3 53 c-2 30 1 52 7 52 5 0 11 -19 13
-42z m198 -13 c0 -30 -4 -55 -10 -55 -5 0 -10 25 -10 55 0 30 5 55 10 55 6 0
10 -25 10 -55z m118 43 c7 -7 12 -26 12 -43 0 -38 -16 -55 -50 -55 -34 0 -50
17 -50 55 0 38 16 55 50 55 14 0 31 -5 38 -12z m126 -4 c10 -25 7 -94 -4 -94
-5 0 -10 15 -10 33 0 41 -13 62 -34 54 -11 -4 -16 -19 -16 -47 0 -22 -4 -40
-10 -40 -5 0 -10 25 -10 55 l0 55 39 0 c26 0 41 -5 45 -16z m117 0 c12 -15 10
-16 -19 -10 -38 9 -45 -10 -8 -24 30 -11 38 -23 30 -45 -8 -20 -75 -17 -82 4
-3 10 0 12 14 7 30 -12 36 -12 41 0 2 7 -10 17 -27 22 -28 10 -40 38 -23 55
12 13 61 7 74 -9z m737 4 c7 -7 12 -20 12 -30 0 -14 -8 -18 -41 -18 -28 0 -39
-4 -36 -12 2 -8 19 -12 42 -11 32 2 35 1 25 -12 -15 -18 -61 -20 -78 -3 -7 7
-12 26 -12 43 0 38 16 55 50 55 14 0 31 -5 38 -12z m120 -46 l3 -53 -43 3
c-38 3 -43 6 -43 27 0 19 8 27 34 36 41 13 27 29 -16 19 -26 -7 -27 -6 -14 10
9 11 25 16 45 14 30 -3 31 -5 34 -56z m92 48 c0 -5 -7 -10 -15 -10 -11 0 -15
-12 -15 -45 0 -33 -4 -45 -15 -45 -12 0 -15 13 -15 55 0 54 0 55 30 55 17 0
30 -4 30 -10z m108 -2 c18 -18 16 -98 -3 -98 -11 0 -15 12 -15 45 0 38 -3 45
-20 45 -17 0 -20 -7 -20 -45 0 -33 -4 -45 -15 -45 -12 0 -15 13 -15 55 l0 55
38 0 c21 0 43 -5 50 -12z m62 -43 c0 -30 -4 -55 -10 -55 -5 0 -10 25 -10 55 0
30 5 55 10 55 6 0 10 -25 10 -55z m118 -2 c2 -31 -1 -53 -7 -53 -5 0 -11 19
-13 43 -2 34 -7 42 -23 42 -16 0 -21 -8 -23 -42 -5 -63 -22 -52 -22 13 l0 55
43 -3 42 -3 3 -52z m132 -13 c0 -64 -2 -71 -22 -79 -13 -5 -29 -7 -35 -5 -44
13 -46 15 -35 26 8 8 15 8 27 -2 12 -10 18 -10 30 0 22 19 18 28 -10 22 -34
-6 -55 14 -55 52 0 42 16 56 62 56 l38 0 0 -70z m690 24 c0 -38 3 -45 18 -42
12 2 18 15 20 46 2 28 8 42 18 42 10 0 14 -14 14 -55 l0 -55 -38 0 c-49 0 -62
14 -62 67 0 32 4 43 15 43 11 0 15 -12 15 -46z m188 34 c7 -7 12 -26 12 -43 0
-38 -16 -55 -52 -55 -21 0 -28 -5 -28 -20 0 -11 -4 -20 -10 -20 -6 0 -10 32
-10 75 l0 75 38 0 c21 0 43 -5 50 -12z m130 0 c7 -7 12 -26 12 -43 0 -38 -16
-55 -52 -55 -21 0 -28 -5 -28 -20 0 -11 -4 -20 -10 -20 -6 0 -10 32 -10 75 l0
75 38 0 c21 0 43 -5 50 -12z m120 0 c7 -7 12 -26 12 -43 0 -38 -16 -55 -50
-55 -34 0 -50 17 -50 55 0 38 16 55 50 55 14 0 31 -5 38 -12z m102 3 c0 -5 -9
-11 -20 -14 -16 -4 -20 -14 -20 -46 0 -23 -4 -41 -10 -41 -5 0 -10 25 -10 55
0 54 0 55 30 55 17 0 30 -4 30 -9z m584 -7 c29 -28 20 -44 -25 -44 -28 0 -39
-4 -36 -12 2 -7 18 -12 36 -11 20 0 31 -3 28 -10 -2 -7 -21 -12 -43 -12 -33 0
-40 4 -48 27 -20 56 47 103 88 62z m96 6 c0 -5 -7 -10 -15 -10 -11 0 -15 -12
-15 -45 0 -33 -4 -45 -15 -45 -12 0 -15 13 -15 55 0 54 0 55 30 55 17 0 30 -4
30 -10z m55 -20 c7 -30 25 -42 25 -17 0 18 27 53 35 45 10 -10 -28 -108 -43
-108 -12 0 -30 34 -46 88 -5 16 -3 22 8 22 8 0 17 -13 21 -30z m115 -25 c0
-42 -3 -55 -15 -55 -12 0 -15 13 -15 55 0 42 3 55 15 55 12 0 15 -13 15 -55z
m110 40 c17 -20 5 -32 -15 -15 -23 19 -45 5 -45 -31 0 -30 1 -31 36 -24 28 5
35 3 32 -7 -3 -7 -20 -14 -38 -16 -38 -4 -60 16 -60 54 0 46 62 73 90 39z
m118 3 c7 -7 12 -20 12 -30 0 -14 -8 -18 -35 -18 -26 0 -35 -4 -35 -16 0 -13
7 -15 36 -9 28 5 35 3 32 -7 -6 -17 -65 -23 -84 -7 -17 14 -19 70 -2 87 7 7
24 12 38 12 14 0 31 -5 38 -12z m120 -7 c3 -10 -3 -11 -27 -6 -40 9 -41 -10 0
-24 24 -8 30 -15 27 -33 -2 -18 -10 -24 -39 -26 -26 -2 -38 2 -42 12 -7 17 18
23 28 6 7 -11 35 -2 35 11 0 5 -6 9 -13 9 -7 0 -23 7 -35 16 -18 12 -20 19
-11 35 7 15 19 19 41 17 17 -2 33 -9 36 -17z m766 3 c19 -19 21 -54 3 -78 -21
-28 -79 -18 -91 16 -20 56 47 103 88 62z m184 4 c18 -15 16 -98 -3 -98 -11 0
-15 12 -15 45 0 32 -4 45 -14 45 -17 0 -26 -22 -26 -61 0 -16 -4 -29 -10 -29
-5 0 -10 21 -10 46 0 38 -3 45 -17 42 -13 -2 -19 -15 -21 -46 -5 -61 -22 -52
-22 13 l0 55 63 -1 c34 -1 68 -6 75 -11z m180 0 c18 -15 16 -98 -3 -98 -11 0
-15 12 -15 45 0 32 -4 45 -14 45 -17 0 -26 -22 -26 -61 0 -16 -4 -29 -10 -29
-5 0 -10 21 -10 46 0 38 -3 45 -17 42 -13 -2 -19 -15 -21 -46 -5 -61 -22 -52
-22 13 l0 55 63 -1 c34 -1 68 -6 75 -11z m64 -30 c2 -31 8 -44 21 -46 14 -3
17 4 17 42 0 34 4 46 15 46 12 0 15 -13 15 -56 l0 -55 -42 3 -43 3 -3 53 c-2
30 1 52 7 52 5 0 11 -19 13 -42z m186 -15 c2 -31 -1 -53 -7 -53 -5 0 -11 19
-13 43 -2 34 -7 42 -23 42 -16 0 -21 -8 -23 -42 -5 -63 -22 -52 -22 13 l0 55
43 -3 42 -3 3 -52z m62 2 c0 -42 -3 -55 -15 -55 -12 0 -15 13 -15 55 0 42 3
55 15 55 12 0 15 -13 15 -55z m135 14 l12 -34 12 38 c7 21 19 37 28 37 10 0
13 -5 8 -17 -4 -10 -14 -38 -22 -63 -20 -57 -30 -70 -57 -70 -21 1 -21 1 -2
15 19 14 19 17 3 68 -20 64 -21 70 -5 65 6 -2 17 -20 23 -39z m1076 32 c-8 -5
-20 -7 -28 -4 -21 8 -15 13 15 13 20 0 23 -3 13 -9z m109 -1 c8 -5 11 -10 5
-10 -5 0 -17 5 -25 10 -8 5 -10 10 -5 10 6 0 17 -5 25 -10z m294 2 c3 -5 -4
-8 -16 -8 -34 1 -33 -23 1 -35 18 -6 31 -18 31 -27 -1 -16 -1 -16 -10 -1 -5 9
-21 20 -35 23 -14 4 -25 12 -25 19 0 27 41 49 54 29z m-221 -17 c-3 -9 -8 -14
-10 -11 -3 3 -2 9 2 15 9 16 15 13 8 -4z m-556 -17 c-3 -8 -6 -5 -6 6 -1 11 2
17 5 13 3 -3 4 -12 1 -19z m4603 2 c0 -15 -7 -20 -25 -20 -18 0 -25 5 -25 20
0 15 7 20 25 20 18 0 25 -5 25 -20z m70 0 c0 -13 -7 -20 -20 -20 -13 0 -20 7
-20 20 0 13 7 20 20 20 13 0 20 -7 20 -20z m80 0 c0 -15 -7 -20 -25 -20 -18 0
-25 5 -25 20 0 15 7 20 25 20 18 0 25 -5 25 -20z m-4630 -5 c0 -11 -11 -15
-42 -13 l-43 1 38 4 c20 2 37 8 37 14 0 5 2 9 5 9 3 0 5 -7 5 -15z m377 -22
c-3 -10 -5 -4 -5 12 0 17 2 24 5 18 2 -7 2 -21 0 -30z m-47 -30 c14 -7 19 -13
11 -13 -22 0 -51 31 -50 54 1 18 2 18 8 -4 4 -14 18 -30 31 -37z m-470 12 c-7
-8 -17 -15 -23 -15 -6 0 -2 7 9 15 25 19 30 19 14 0z m598 -15 c10 0 24 6 32
13 12 10 12 9 1 -5 -21 -29 -72 -16 -71 17 0 5 5 2 11 -7 5 -10 18 -18 27 -18z
m-488 3 c11 3 18 1 14 -4 -9 -15 -41 -10 -55 9 -13 15 -12 16 3 3 10 -7 27
-11 38 -8z m113 0 c-3 -7 -6 -13 -8 -13 -2 0 -5 6 -8 13 -3 8 1 14 8 14 7 0
11 -6 8 -14z m172 -11 c-3 -3 -11 0 -18 7 -9 10 -8 11 6 5 10 -3 15 -9 12 -12z
m4225 -7 c0 -20 -5 -25 -25 -25 -20 0 -25 5 -25 25 0 20 5 25 25 25 20 0 25
-5 25 -25z m70 0 c0 -18 -5 -25 -20 -25 -15 0 -20 7 -20 25 0 18 5 25 20 25
15 0 20 -7 20 -25z m80 0 c0 -20 -5 -25 -25 -25 -20 0 -25 5 -25 25 0 20 5 25
25 25 20 0 25 -5 25 -25z m-3983 9 c-3 -3 -12 -4 -19 -1 -8 3 -5 6 6 6 11 1
17 -2 13 -5z m-10633 -1490 c9 -8 16 -31 16 -49 0 -44 -22 -65 -71 -65 l-39 0
0 65 0 65 39 0 c23 0 46 -7 55 -16z m140 0 c9 -8 16 -31 16 -49 0 -40 -22 -65
-57 -65 -55 0 -84 70 -46 112 20 22 66 24 87 2z m62 -19 c8 -45 21 -45 30 1 9
50 35 41 49 -16 l12 -45 7 42 c7 40 21 61 32 50 10 -9 -28 -127 -41 -127 -6 0
-18 19 -25 43 l-13 42 -11 -40 c-17 -58 -36 -50 -57 23 -14 51 -15 62 -4 62 8
0 17 -15 21 -35z m206 -8 l28 -42 0 43 c0 31 4 42 15 42 12 0 15 -14 15 -65 0
-80 -15 -85 -59 -17 l-31 47 0 -47 c0 -27 -4 -48 -10 -48 -6 0 -10 28 -10 65
0 78 13 84 52 22z m108 -12 c0 -54 0 -55 30 -55 17 0 30 -4 30 -10 0 -5 -20
-10 -45 -10 l-45 0 0 65 c0 51 3 65 15 65 12 0 15 -13 15 -55z m174 39 c9 -8
16 -31 16 -49 0 -40 -22 -65 -57 -65 -55 0 -84 70 -46 112 20 22 66 24 87 2z
m96 13 c0 -2 11 -31 24 -65 19 -47 21 -62 11 -62 -8 0 -17 9 -20 20 -8 27 -39
25 -58 -2 -26 -40 -30 -12 -6 51 12 34 28 61 35 61 8 0 14 -1 14 -3z m154 -13
c9 -8 16 -31 16 -49 0 -44 -22 -65 -71 -65 l-39 0 0 65 0 65 39 0 c23 0 46 -7
55 -16z m116 -28 c0 -48 20 -79 45 -70 11 4 15 22 15 60 0 41 4 54 15 54 11 0
15 -13 15 -53 0 -61 -11 -77 -55 -77 -17 0 -36 5 -43 12 -14 14 -16 118 -2
118 6 0 10 -20 10 -44z m167 2 l28 -42 3 42 c2 29 8 42 18 42 11 0 14 -15 14
-65 0 -79 -16 -86 -57 -23 l-28 42 -3 -42 c-2 -29 -8 -42 -18 -42 -11 0 -14
15 -14 65 0 79 16 86 57 23z m113 -23 c0 -51 -3 -65 -15 -65 -12 0 -15 14 -15
65 0 51 3 65 15 65 12 0 15 -14 15 -65z m120 55 c0 -5 -9 -10 -20 -10 -18 0
-20 -7 -20 -55 0 -30 -4 -55 -10 -55 -5 0 -10 25 -10 55 0 48 -2 55 -20 55
-11 0 -20 5 -20 10 0 6 23 10 50 10 28 0 50 -4 50 -10z m57 -16 l16 -26 14 26
c8 14 21 26 29 26 13 0 12 -6 -5 -34 -12 -18 -21 -47 -21 -65 0 -21 -5 -31
-15 -31 -10 0 -15 10 -15 28 0 15 -9 41 -20 57 -11 17 -20 33 -20 38 0 16 20
6 37 -19z m1424 -856 c72 -33 134 -94 168 -167 23 -49 26 -69 26 -156 0 -87
-3 -107 -26 -155 -33 -70 -95 -132 -167 -167 -52 -26 -67 -28 -167 -28 -130 1
-176 17 -254 90 -72 68 -105 147 -105 255 0 172 78 282 243 346 24 9 68 13
131 11 77 -2 105 -8 151 -29z m1045 -4 c33 -16 60 -36 62 -44 1 -8 -15 -35
-37 -60 l-39 -45 -38 21 c-109 61 -242 26 -295 -77 -40 -80 -35 -178 14 -250
56 -84 187 -110 278 -57 l46 27 41 -48 41 -48 -22 -21 c-12 -11 -42 -30 -67
-43 -39 -21 -59 -24 -150 -24 -99 0 -110 2 -172 33 -117 58 -178 152 -186 288
-8 139 42 252 142 321 72 49 126 63 233 60 78 -2 99 -7 149 -33z m2904 5 c159
-74 235 -259 181 -437 -27 -88 -95 -168 -179 -209 -52 -26 -66 -28 -172 -28
-106 0 -120 2 -172 28 -117 57 -190 177 -190 312 -1 87 12 134 54 204 40 66
85 104 164 137 52 22 71 24 159 21 82 -2 110 -7 155 -28z m-6810 -196 c0 -125
5 -235 11 -257 21 -76 95 -112 174 -85 31 11 45 23 63 59 21 42 22 56 22 272
l0 228 76 0 76 0 -4 -247 c-3 -233 -5 -251 -26 -298 -47 -101 -114 -146 -233
-153 -112 -7 -175 14 -232 78 -28 31 -49 66 -56 94 -7 27 -11 140 -11 285 l0
241 70 0 70 0 0 -217z m1075 -4 l140 -220 3 221 2 220 70 0 70 0 0 -345 0
-345 -72 0 -73 0 -145 223 -145 222 -3 -223 -2 -222 -70 0 -70 0 0 345 0 345
78 0 77 -1 140 -220z m805 -59 l0 -280 85 0 85 0 0 -65 0 -65 -160 0 -160 0 0
345 0 345 75 0 75 0 0 -280z m2572 148 l3 -133 100 132 100 133 88 0 87 0 -72
-92 c-39 -51 -96 -123 -125 -159 -29 -36 -53 -71 -53 -78 0 -6 56 -89 125
-184 l125 -172 -81 -3 c-44 -2 -86 2 -93 7 -7 6 -55 69 -107 141 l-94 130 -3
-140 -3 -140 -74 0 -75 0 0 345 0 345 75 0 74 0 3 -132z m1282 37 c27 -52 52
-95 55 -95 3 0 28 43 56 95 l49 95 78 0 c43 0 78 -2 78 -5 0 -3 -43 -80 -95
-172 l-95 -166 0 -174 0 -173 -75 0 -75 0 0 171 0 171 -95 170 c-52 93 -95
171 -95 173 0 3 37 5 83 5 l82 0 49 -95z m1756 -130 c0 -184 3 -232 16 -265
19 -48 60 -73 119 -73 51 0 81 16 105 56 18 29 20 52 20 270 l0 237 75 0 75 0
0 -237 c0 -131 -5 -256 -10 -277 -13 -56 -58 -116 -114 -150 -41 -26 -60 -30
-136 -34 -141 -7 -219 31 -273 132 -21 39 -22 57 -25 304 l-3 262 75 0 76 0 0
-225z m1109 205 c66 -29 101 -84 101 -162 0 -71 -23 -131 -62 -162 l-30 -23
63 -124 c35 -68 71 -141 81 -161 l17 -38 -79 0 -79 0 -73 150 c-67 140 -74
150 -100 150 l-28 0 3 -150 3 -150 -73 0 -73 0 -1 98 c0 73 0 478 1 580 0 9
35 12 141 12 119 0 147 -3 188 -20z m-8249 -1098 c25 -11 54 -28 64 -36 21
-17 18 -24 -37 -90 l-24 -29 -47 22 c-60 29 -111 36 -164 21 -155 -41 -204
-258 -86 -376 69 -70 170 -81 259 -29 l41 23 37 -45 c20 -25 37 -50 37 -55 0
-14 -86 -64 -135 -78 -27 -7 -76 -11 -123 -8 -136 8 -245 76 -299 186 -25 52
-28 67 -28 167 0 106 1 112 34 173 46 84 111 137 206 169 61 20 209 12 265
-15z m767 -14 c53 -35 77 -87 77 -163 -1 -68 -19 -111 -62 -147 l-29 -23 78
-157 c44 -87 79 -160 79 -163 0 -3 -34 -5 -75 -5 l-75 0 -75 150 c-67 133 -78
150 -100 150 l-25 0 0 -150 0 -150 -75 0 -75 0 0 346 0 346 158 -4 c152 -3
160 -4 199 -30z m773 -33 l0 -65 -90 0 -90 0 0 -70 0 -70 90 0 90 0 0 -65 0
-65 -90 0 -90 0 0 -80 0 -80 95 0 95 0 0 -65 0 -65 -165 0 -165 0 0 345 0 345
160 0 160 0 0 -65z m840 -266 c69 -182 126 -337 128 -345 3 -12 -10 -14 -73
-12 l-77 3 -33 90 -32 90 -115 3 -116 3 -33 -96 -34 -95 -74 0 c-66 0 -72 2
-66 18 4 9 58 159 121 332 63 173 116 321 119 328 3 8 29 12 82 12 l78 0 125
-331z m760 266 l0 -65 -65 0 -65 0 0 -280 0 -280 -75 0 -75 0 0 280 0 280 -60
0 -60 0 0 65 0 65 200 0 200 0 0 -65z m470 -280 l0 -345 -70 0 -70 0 0 345 0
345 70 0 70 0 0 -345z m569 108 c46 -131 87 -241 90 -245 4 -4 44 98 90 226
46 129 87 239 91 245 4 8 33 11 82 9 l76 -3 -94 -250 c-52 -137 -111 -292
-130 -343 l-36 -93 -81 3 -81 3 -128 340 c-70 187 -128 341 -128 343 0 1 37 2
83 2 l82 0 84 -237z m891 -108 l0 -345 -75 0 -75 0 0 345 0 345 75 0 75 0 0
-345z m730 280 l0 -65 -60 0 -60 0 0 -280 0 -280 -75 0 -75 0 0 280 0 280 -65
0 -65 0 0 65 0 65 200 0 200 0 0 -65z m512 -29 c27 -49 50 -91 52 -94 3 -2 28
39 56 92 l52 96 79 0 c43 0 79 -2 79 -5 0 -3 -43 -80 -95 -171 l-95 -166 0
-174 0 -174 -75 0 -75 0 0 169 0 169 -90 161 c-50 88 -93 167 -96 176 -6 14 4
15 76 13 l83 -3 49 -89z m-1122 -1465 c0 -5 -10 -16 -22 -24 -19 -13 -20 -16
-5 -16 21 -1 23 -21 2 -21 -12 0 -15 -13 -15 -55 0 -30 -4 -55 -10 -55 -5 0
-10 24 -10 54 0 34 -5 57 -12 60 -10 5 -10 7 0 12 6 3 12 14 12 24 0 10 6 21
13 23 20 9 47 8 47 -2z m550 -1 c0 -5 -8 -14 -17 -19 -16 -9 -16 -12 -3 -22
11 -8 12 -12 3 -16 -8 -3 -13 -25 -13 -59 0 -41 -4 -54 -15 -54 -11 0 -15 13
-15 54 0 34 -5 57 -12 60 -10 5 -10 7 0 12 6 3 12 11 12 18 0 7 5 17 12 24 14
14 48 16 48 2z m2893 -21 c-17 -17 -37 -1 -22 17 8 10 15 12 23 4 7 -7 7 -13
-1 -21z m497 16 c0 -8 -7 -15 -15 -15 -8 0 -15 -4 -15 -10 0 -5 7 -10 15 -10
8 0 15 -4 15 -10 0 -5 -7 -10 -15 -10 -12 0 -15 -13 -15 -55 0 -42 -3 -55 -15
-55 -12 0 -15 13 -15 55 0 52 -1 55 -25 55 -23 0 -25 -4 -25 -45 0 -33 4 -45
15 -45 8 0 15 -4 15 -9 0 -17 -19 -22 -40 -11 -16 8 -20 21 -20 60 0 29 -5 51
-12 54 -10 5 -10 7 0 12 6 3 12 12 12 20 0 8 7 14 15 14 8 0 15 -7 15 -15 0
-9 9 -15 25 -15 14 0 25 6 25 13 0 19 21 37 42 37 10 0 18 -7 18 -15z m-9546
-6 c34 -16 50 -65 35 -107 -14 -39 -35 -52 -88 -52 l-41 0 0 85 0 85 35 0 c19
0 45 -5 59 -11z m536 -74 c0 -69 -3 -85 -15 -85 -12 0 -15 16 -15 85 0 69 3
85 15 85 12 0 15 -16 15 -85z m400 1 l0 -83 -50 -2 c-39 0 -52 3 -60 19 -28
53 4 117 55 108 21 -4 25 -1 25 18 0 15 6 24 15 24 12 0 15 -16 15 -84z m200
60 c0 -19 4 -22 23 -19 37 7 57 -21 57 -78 0 -36 -4 -49 -14 -49 -11 0 -16 15
-18 53 -3 44 -6 52 -23 52 -17 0 -20 -8 -23 -52 -2 -38 -7 -53 -18 -53 -11 0
-14 17 -14 85 0 69 3 85 15 85 9 0 15 -9 15 -24z m720 -61 c0 -50 -4 -85 -10
-85 -6 0 -10 35 -10 85 0 50 4 85 10 85 6 0 10 -35 10 -85z m140 0 l0 -85 -45
0 c-36 0 -48 5 -61 25 -31 47 7 115 57 102 15 -4 19 0 19 19 0 15 6 24 15 24
12 0 15 -16 15 -85z m50 68 c0 -22 -17 -49 -25 -41 -8 8 5 58 16 58 5 0 9 -8
9 -17z m1340 -68 c0 -50 -4 -85 -10 -85 -6 0 -10 35 -10 85 0 50 4 85 10 85 6
0 10 -35 10 -85z m420 1 l0 -83 -50 -2 c-39 0 -52 3 -60 19 -28 53 4 117 55
108 21 -4 25 -1 25 18 0 15 6 24 15 24 12 0 15 -16 15 -84z m430 -1 c0 -69 -3
-85 -15 -85 -12 0 -15 16 -15 85 0 69 3 85 15 85 12 0 15 -16 15 -85z m1060 0
c0 -69 -3 -85 -15 -85 -12 0 -15 16 -15 85 0 69 3 85 15 85 12 0 15 -16 15
-85z m1720 69 c0 -17 -22 -14 -28 4 -2 7 3 12 12 12 9 0 16 -7 16 -16z m454 0
c24 -24 19 -46 -20 -92 l-36 -42 36 0 c20 0 36 -4 36 -10 0 -5 -25 -10 -55
-10 -30 0 -55 4 -55 9 0 4 18 29 40 54 22 25 40 52 40 61 0 24 -31 32 -45 13
-15 -20 -35 -22 -35 -4 0 36 65 51 94 21z m141 10 c26 -10 48 -62 40 -100 -8
-43 -38 -64 -92 -64 l-43 0 0 85 0 85 39 0 c22 0 47 -3 56 -6z m495 -79 c0
-77 -2 -85 -19 -85 -11 0 -26 -3 -35 -6 -21 -8 -66 39 -66 71 0 34 35 68 66
62 20 -3 24 0 24 19 0 15 6 24 15 24 12 0 15 -16 15 -85z m201 64 c8 -16 8
-28 0 -45 -6 -15 -7 -25 -1 -29 6 -4 10 -17 10 -30 0 -51 -86 -70 -110 -24
-14 24 7 37 24 14 17 -23 50 -15 54 13 3 18 -1 22 -22 22 -32 0 -35 27 -4 32
13 2 24 10 26 19 4 23 -28 33 -48 14 -20 -18 -30 -19 -30 -2 0 40 81 53 101
16z m150 2 c19 -15 24 -29 24 -64 0 -63 -24 -87 -87 -87 l-48 0 0 85 0 85 44
0 c28 0 52 -7 67 -19z m459 -66 c0 -66 -3 -85 -14 -85 -11 0 -14 18 -14 78 0
79 2 92 19 92 5 0 9 -38 9 -85z m330 0 c0 -69 -3 -85 -15 -85 -12 0 -15 16
-15 85 0 69 3 85 15 85 12 0 15 -16 15 -85z m1930 0 l0 -85 -45 0 c-36 0 -48
5 -61 25 -31 47 7 115 57 102 15 -4 19 0 19 19 0 15 6 24 15 24 12 0 15 -16
15 -85z m118 74 c-2 -6 -8 -10 -13 -10 -5 0 -11 4 -13 10 -2 6 4 11 13 11 9 0
15 -5 13 -11z m816 2 c3 -5 0 -11 -8 -14 -15 -6 -26 1 -26 15 0 11 27 10 34
-1z m-11054 -16 c0 -8 7 -15 15 -15 8 0 15 -4 15 -10 0 -5 -7 -10 -15 -10 -11
0 -15 -12 -15 -45 0 -33 4 -45 15 -45 8 0 15 -4 15 -10 0 -14 -33 -13 -48 2
-7 7 -12 31 -12 55 0 24 -5 43 -10 43 -6 0 -3 11 6 25 18 28 34 33 34 10z
m1664 -7 c13 -14 15 -23 8 -26 -15 -5 -16 -92 -2 -92 6 0 10 -5 10 -11 0 -6
-10 -9 -22 -7 -20 3 -23 10 -26 53 -2 27 -9 53 -15 58 -9 7 -9 10 1 14 6 2 12
11 12 19 0 20 13 17 34 -8z m2306 7 c0 -8 7 -15 15 -15 8 0 15 -4 15 -10 0 -5
-7 -10 -15 -10 -11 0 -15 -12 -15 -45 0 -33 4 -45 15 -45 8 0 15 -4 15 -10 0
-16 -47 -11 -54 6 -3 9 -6 33 -6 54 0 21 -6 41 -12 44 -10 5 -10 7 0 12 6 3
12 12 12 20 0 8 7 14 15 14 8 0 15 -7 15 -15z m460 0 c0 -8 7 -15 15 -15 8 0
15 -4 15 -10 0 -5 -7 -10 -15 -10 -11 0 -15 -12 -15 -45 0 -34 4 -45 16 -45 9
0 14 -6 11 -12 -5 -15 -39 -11 -49 5 -4 7 -8 31 -8 54 0 23 -5 44 -12 47 -10
5 -10 7 0 12 6 3 12 12 12 20 0 8 7 14 15 14 8 0 15 -7 15 -15z m1460 0 c0 -8
7 -15 15 -15 8 0 15 -4 15 -10 0 -5 -7 -10 -15 -10 -11 0 -15 -12 -15 -45 0
-33 4 -45 15 -45 8 0 15 -5 15 -11 0 -6 -12 -9 -27 -7 -26 3 -28 7 -31 53 -2
27 -9 53 -15 58 -9 7 -9 10 1 14 6 2 12 11 12 19 0 8 7 14 15 14 8 0 15 -7 15
-15z m2040 1 c0 -8 6 -17 13 -20 10 -5 10 -7 0 -12 -17 -7 -17 -91 -1 -96 6
-2 8 -10 4 -16 -5 -9 -13 -9 -27 -2 -15 8 -19 21 -19 60 0 29 -5 51 -12 54
-10 5 -10 7 0 12 6 3 12 12 12 20 0 8 7 14 15 14 8 0 15 -6 15 -14z m2500 -1
c0 -8 7 -15 15 -15 8 0 15 -4 15 -10 0 -5 -7 -10 -15 -10 -11 0 -15 -12 -15
-45 0 -33 4 -45 15 -45 8 0 15 -4 15 -10 0 -14 -33 -13 -48 2 -7 7 -12 31 -12
55 0 24 -5 43 -10 43 -6 0 -3 11 6 25 18 28 34 33 34 10z m550 4 c0 -7 8 -18
18 -25 16 -13 16 -13 0 -14 -14 0 -18 -9 -18 -41 0 -28 6 -46 18 -55 15 -12
15 -13 -9 -14 -31 0 -39 15 -39 70 0 21 -6 41 -12 44 -10 5 -10 7 0 12 6 3 12
12 12 20 0 8 7 14 15 14 8 0 15 -5 15 -11z m-11880 -39 c24 -24 26 -72 4 -94
-20 -21 -63 -20 -86 1 -37 34 -8 113 42 113 11 0 29 -9 40 -20z m65 -26 l12
-39 13 43 c7 23 18 42 25 42 7 0 18 -19 25 -42 l13 -43 12 39 c11 38 35 62 35
35 0 -29 -35 -119 -46 -119 -7 0 -19 19 -26 41 l-14 42 -12 -42 c-18 -57 -36
-52 -56 17 -19 70 -19 75 -4 70 6 -2 17 -22 23 -44z m250 23 c20 -29 20 -107
0 -107 -11 0 -15 12 -15 49 0 35 -4 51 -16 55 -26 10 -34 -3 -34 -55 0 -37 -4
-49 -15 -49 -12 0 -15 14 -15 63 l0 63 40 1 c30 2 43 -3 55 -20z m185 3 c42
-42 13 -110 -45 -110 -38 0 -55 20 -55 66 0 57 60 84 100 44z m121 10 c15 -9
19 -22 19 -65 l0 -55 -44 0 c-76 0 -89 54 -18 72 18 5 32 13 32 18 0 16 -19
21 -41 10 -26 -14 -36 -6 -19 15 14 17 43 19 71 5z m552 -2 c9 -7 18 -24 19
-38 3 -23 -1 -25 -39 -28 -44 -3 -57 -17 -27 -29 9 -3 25 -1 35 5 11 7 20 8
24 2 11 -19 -6 -30 -45 -30 -43 0 -60 18 -60 66 0 52 53 82 93 52z m132 -20
c11 -52 18 -55 30 -12 14 50 35 50 50 -1 l12 -40 12 43 c7 24 18 42 26 42 8 0
13 -6 10 -12 -30 -98 -38 -118 -49 -118 -7 0 -19 19 -26 43 l-14 42 -9 -43
c-16 -71 -44 -47 -71 61 -5 20 -3 27 8 27 8 0 17 -14 21 -32z m247 15 c21 -19
25 -82 6 -101 -22 -22 -76 -15 -94 13 -40 62 34 137 88 88z m108 7 c0 -5 -9
-12 -20 -15 -16 -5 -20 -15 -20 -56 0 -37 -4 -49 -15 -49 -12 0 -15 14 -15 64
l0 64 35 0 c19 0 35 -4 35 -8z m320 -5 c18 -21 4 -32 -21 -17 -20 13 -39 9
-39 -8 0 -5 16 -14 36 -20 30 -10 35 -16 32 -38 -3 -23 -8 -27 -42 -30 -41 -4
-63 9 -51 28 5 8 10 9 18 1 16 -16 47 -14 47 3 0 8 -12 17 -27 21 -43 10 -53
33 -27 59 20 20 58 21 74 1z m176 4 c8 -7 14 -6 19 1 9 15 41 12 59 -6 22 -21
22 -114 1 -114 -11 0 -15 12 -15 49 0 28 -5 53 -10 56 -21 13 -40 -17 -40 -61
0 -24 -4 -44 -10 -44 -5 0 -10 19 -10 43 0 46 -14 69 -36 60 -9 -3 -14 -22
-14 -54 0 -37 -4 -49 -15 -49 -12 0 -15 13 -15 58 0 32 2 61 5 64 9 9 69 7 81
-3z m206 -6 c21 -19 25 -82 6 -101 -22 -22 -76 -15 -94 13 -40 62 34 137 88
88z m128 2 c18 -21 4 -32 -21 -17 -20 13 -39 9 -39 -8 0 -5 16 -14 36 -20 30
-10 35 -16 32 -38 -3 -23 -8 -27 -42 -30 -41 -4 -63 9 -51 28 5 8 10 9 18 1
16 -16 47 -13 47 4 0 8 -9 15 -19 15 -20 0 -51 24 -51 40 0 34 67 52 90 25z
m273 -2 c21 -20 23 -86 2 -103 -8 -7 -28 -10 -45 -8 -27 4 -30 2 -30 -24 0
-15 -4 -28 -10 -28 -6 0 -10 36 -10 88 l0 88 38 1 c21 1 44 -5 55 -14z m137
-3 c42 -42 13 -110 -45 -110 -38 0 -55 20 -55 66 0 57 60 84 100 44z m132 9
c9 -5 19 -23 23 -39 9 -43 -16 -80 -55 -80 -25 0 -30 -4 -30 -25 0 -16 -6 -25
-15 -25 -12 0 -15 16 -15 88 l0 88 37 1 c21 1 45 -3 55 -8z m70 -41 c3 -45 6
-53 23 -53 17 0 20 8 23 53 2 37 7 52 18 52 11 0 14 -15 14 -65 l0 -65 -45 0
c-34 0 -47 5 -55 19 -11 22 -14 94 -3 104 15 16 22 4 25 -45z m246 40 c7 -7
12 -36 12 -65 l0 -53 -44 0 c-76 0 -89 54 -18 72 18 5 32 13 32 18 0 16 -19
21 -41 10 -26 -14 -36 -6 -19 15 15 18 61 20 78 3z m112 4 c0 -4 -10 -12 -22
-17 -19 -8 -24 -19 -26 -57 -5 -71 -22 -58 -22 15 l0 64 35 1 c19 1 35 -2 35
-6z m303 -4 c9 -7 18 -24 19 -38 3 -23 -1 -25 -39 -28 -44 -3 -57 -17 -27 -29
9 -3 25 -1 35 5 11 7 20 8 24 2 11 -19 -6 -30 -45 -30 -43 0 -60 18 -60 66 0
52 53 82 93 52z m68 -28 c7 -22 15 -40 19 -40 4 0 12 18 19 40 7 23 18 40 26
40 19 0 19 5 -8 -65 -30 -78 -47 -81 -71 -13 -11 29 -21 59 -24 66 -2 6 3 12
12 12 9 0 20 -15 27 -40z m181 23 c10 -9 18 -27 18 -40 0 -21 -4 -23 -45 -23
-35 0 -43 -3 -39 -15 7 -17 49 -20 59 -5 4 6 11 8 16 4 18 -11 -13 -34 -46
-34 -39 0 -58 20 -58 60 0 58 55 89 95 53z m188 -3 c24 -24 26 -72 4 -94 -20
-21 -63 -20 -86 1 -37 34 -8 113 42 113 11 0 29 -9 40 -20z m132 9 c9 -5 19
-23 23 -39 9 -43 -16 -80 -55 -80 -25 0 -30 -4 -30 -25 0 -16 -6 -25 -15 -25
-12 0 -15 16 -15 88 l0 88 37 1 c21 1 45 -3 55 -8z m208 -9 c16 -30 13 -110
-4 -110 -11 0 -16 15 -18 53 -2 38 -7 52 -18 52 -11 0 -16 -14 -18 -52 -2 -38
-7 -53 -18 -53 -10 0 -14 13 -14 49 0 32 -5 51 -14 54 -22 9 -36 -14 -36 -60
0 -24 -4 -43 -10 -43 -6 0 -10 28 -10 63 l0 63 75 1 c63 1 77 -2 85 -17z m122
3 c10 -9 18 -27 18 -40 0 -21 -4 -23 -46 -23 -40 0 -45 -2 -34 -15 14 -17 46
-20 55 -5 4 6 11 8 16 4 18 -11 -13 -34 -46 -34 -39 0 -58 20 -58 60 0 58 55
89 95 53z m135 6 c19 -17 18 -119 -2 -119 -11 0 -15 12 -15 49 0 28 -5 53 -10
56 -21 13 -40 -17 -40 -61 0 -32 -4 -44 -15 -44 -12 0 -15 13 -15 58 0 32 2
61 5 64 10 10 79 7 92 -3z m284 -10 c10 -10 19 -30 19 -44 0 -35 -44 -78 -70
-70 -16 5 -20 2 -20 -19 0 -16 -6 -26 -15 -26 -12 0 -15 17 -15 89 l0 89 41 0
c27 1 47 -6 60 -19z m177 9 c7 -7 12 -35 12 -64 0 -51 -1 -52 -32 -57 -20 -3
-42 1 -55 9 -39 25 -26 55 30 69 15 4 27 11 27 15 0 17 -19 21 -39 8 -25 -15
-39 -4 -21 17 15 18 61 20 78 3z m294 -5 c21 -19 24 -71 4 -98 -8 -11 -26 -18
-46 -18 -38 0 -60 23 -60 63 0 60 60 91 102 53z m108 6 c0 -6 -9 -13 -20 -16
-17 -4 -20 -14 -20 -54 0 -37 -4 -49 -15 -49 -12 0 -15 14 -15 65 l0 65 35 0
c19 0 35 -5 35 -11z m97 0 c7 -7 14 -6 18 1 11 17 54 11 65 -9 16 -31 13 -111
-5 -111 -11 0 -15 12 -15 49 0 32 -5 51 -14 54 -22 9 -36 -14 -36 -60 0 -32
-4 -43 -15 -43 -11 0 -15 12 -15 48 0 27 -3 52 -7 55 -14 15 -33 -18 -33 -59
0 -32 -4 -44 -15 -44 -12 0 -15 14 -15 64 l0 64 38 0 c20 0 42 -4 49 -9z m345
-6 c21 -19 25 -85 6 -101 -31 -24 -57 -23 -83 2 -30 30 -32 69 -5 96 24 24 57
26 82 3z m108 5 c0 -5 -9 -12 -20 -15 -17 -4 -20 -14 -20 -54 0 -37 -4 -49
-15 -49 -12 0 -15 14 -15 64 l0 64 35 0 c19 0 35 -4 35 -10z m173 -6 c22 -24
10 -36 -16 -17 -41 29 -81 -33 -42 -65 13 -11 20 -11 40 0 14 7 27 11 30 8 8
-8 -19 -36 -42 -43 -29 -8 -73 34 -73 70 0 54 69 85 103 47z m97 3 c0 -7 -9
-15 -20 -18 -16 -4 -20 -14 -20 -51 0 -34 -4 -46 -15 -46 -12 0 -15 14 -15 64
l0 64 35 0 c22 0 35 -5 35 -13z m103 3 c9 -7 18 -24 19 -38 3 -23 -1 -25 -39
-28 -44 -3 -57 -17 -27 -29 9 -3 25 -1 35 5 13 8 20 8 25 1 20 -32 -69 -46
-92 -14 -19 26 -17 75 3 97 19 21 52 23 76 6z m131 -4 c10 -10 16 -33 16 -64
0 -46 -1 -48 -32 -53 -51 -7 -80 8 -76 40 2 22 10 29 41 36 20 5 37 13 37 17
0 16 -20 21 -40 10 -30 -16 -46 -8 -26 13 22 21 60 22 80 1z m146 -49 c0 -51
-3 -65 -15 -65 -12 0 -15 14 -15 65 0 51 3 65 15 65 12 0 15 -14 15 -65z m125
42 c20 -29 20 -107 0 -107 -11 0 -15 12 -15 44 0 44 -19 74 -40 61 -5 -3 -10
-28 -10 -56 0 -37 -4 -49 -15 -49 -12 0 -15 14 -15 64 l0 64 40 0 c30 1 44 -5
55 -21z m145 -56 c0 -47 -5 -82 -12 -89 -24 -24 -110 -9 -94 17 5 8 12 7 25
-1 20 -12 51 -5 51 12 0 5 -13 10 -29 10 -20 0 -35 8 -45 22 -37 53 -5 107 63
106 l41 0 0 -77z m538 67 c7 -7 12 -35 12 -64 l0 -52 -36 -4 c-77 -9 -99 55
-26 74 32 9 41 21 22 33 -5 3 -18 0 -29 -7 -25 -15 -39 -4 -21 17 15 18 61 20
78 3z m131 3 c8 -5 16 -32 19 -65 4 -47 2 -56 -12 -56 -12 0 -16 10 -16 43 0
46 -14 69 -36 60 -9 -3 -14 -22 -14 -54 0 -37 -4 -49 -15 -49 -12 0 -15 14
-15 65 l0 65 38 0 c20 0 43 -4 51 -9z m779 -58 c2 -52 0 -63 -13 -63 -11 0
-15 11 -15 48 0 27 -3 52 -7 55 -14 15 -33 -18 -33 -59 0 -32 -4 -44 -15 -44
-11 0 -15 12 -15 48 0 53 -5 63 -26 55 -9 -3 -14 -21 -14 -54 0 -37 -4 -49
-15 -49 -12 0 -15 14 -15 65 l0 65 83 -3 82 -2 3 -62z m52 25 c0 -51 12 -73
34 -65 12 5 16 20 16 57 0 38 4 50 15 50 12 0 15 -14 15 -65 0 -57 -2 -65 -19
-65 -11 0 -26 -3 -34 -6 -9 -3 -25 4 -36 15 -26 26 -31 121 -6 121 11 0 15
-11 15 -42z m270 -23 c0 -51 -3 -65 -15 -65 -12 0 -15 14 -15 65 0 51 3 65 15
65 12 0 15 -14 15 -65z m122 48 c26 -24 24 -88 -4 -107 -12 -9 -31 -13 -45
-10 -20 5 -23 2 -23 -20 0 -14 -6 -26 -12 -26 -9 0 -14 26 -15 89 l-3 89 43 0
c25 1 49 -6 59 -15z m182 1 c10 -10 16 -33 16 -65 l0 -50 -52 3 c-49 3 -53 5
-56 30 -3 24 2 28 37 39 23 7 41 16 41 20 0 15 -20 20 -40 9 -30 -16 -46 -8
-26 13 22 21 60 22 80 1z m290 1 c23 -24 28 -52 14 -82 -10 -22 -21 -29 -49
-31 -44 -4 -63 16 -63 65 0 55 61 85 98 48z m113 2 c-2 -6 -8 -12 -13 -12 -23
-1 -34 -20 -34 -61 0 -61 -25 -55 -26 7 -2 69 2 76 42 77 24 1 34 -3 31 -11z
m171 0 c18 -14 16 -117 -2 -117 -11 0 -16 15 -18 53 -2 38 -7 52 -18 52 -11 0
-16 -14 -18 -52 -2 -37 -7 -53 -17 -53 -10 0 -15 16 -17 53 -2 38 -7 52 -18
52 -11 0 -16 -14 -18 -52 -2 -38 -7 -53 -18 -53 -11 0 -14 15 -14 65 l0 65 73
-2 c39 -1 78 -6 85 -11z m212 -67 c0 -46 -5 -81 -12 -88 -16 -16 -73 -15 -87
1 -15 19 -3 28 19 15 21 -13 50 -4 50 15 0 9 -9 12 -29 9 -21 -3 -33 2 -45 19
-38 54 -5 109 63 106 l41 -1 0 -76z m114 58 c9 -12 16 -42 16 -66 l0 -43 -52
3 c-51 3 -53 4 -53 33 0 26 5 30 38 38 20 5 37 13 37 17 0 18 -23 22 -46 9
-30 -16 -46 -2 -20 17 29 21 63 17 80 -8z m194 9 c14 -10 17 -117 2 -117 -5 0
-10 20 -10 44 0 44 -19 74 -40 61 -5 -3 -10 -28 -10 -56 0 -36 -4 -49 -14 -49
-11 0 -16 15 -18 53 -2 38 -7 52 -18 52 -11 0 -16 -14 -18 -52 -2 -38 -7 -53
-18 -53 -11 0 -14 15 -14 64 l0 64 73 -2 c39 0 78 -5 85 -9z m133 -8 c32 -32
21 -53 -29 -57 -43 -3 -55 -17 -26 -29 9 -3 25 -1 35 5 11 7 20 8 24 2 19 -31
-55 -42 -87 -13 -37 33 -11 113 38 113 13 0 33 -9 45 -21z m119 6 c18 -21 6
-29 -19 -13 -16 10 -23 10 -33 0 -9 -9 -3 -15 26 -27 42 -18 54 -38 36 -60
-16 -19 -74 -19 -89 -1 -15 18 5 34 22 17 14 -14 47 -15 47 -1 0 5 -16 16 -35
24 -36 16 -46 41 -23 64 17 17 53 15 68 -3z m181 5 c15 -9 19 -22 19 -65 l0
-55 -44 0 c-76 0 -89 54 -18 72 18 5 32 13 32 18 0 16 -19 21 -41 10 -26 -14
-36 -6 -19 15 14 17 43 19 71 5z m136 -2 c15 -12 18 -118 3 -118 -5 0 -10 17
-10 38 0 21 -6 47 -14 57 -22 30 -46 3 -46 -51 0 -68 -18 -52 -22 20 l-3 64
40 0 c22 1 45 -4 52 -10z m273 -53 c0 -51 -3 -65 -15 -65 -12 0 -15 14 -15 65
0 51 3 65 15 65 12 0 15 -14 15 -65z m117 54 c19 -17 18 -119 -2 -119 -11 0
-15 12 -15 49 0 28 -5 53 -10 56 -21 13 -40 -17 -40 -61 0 -32 -4 -44 -15 -44
-12 0 -15 13 -15 58 0 32 2 61 5 64 10 10 79 7 92 -3z m206 -1 c9 -7 18 -24
19 -38 3 -23 -1 -25 -39 -28 -44 -3 -57 -17 -27 -29 9 -3 25 -1 35 5 11 7 20
8 24 2 19 -31 -55 -42 -87 -13 -53 48 17 144 75 101z m110 5 c5 -3 -2 -10 -15
-17 -18 -9 -24 -21 -26 -59 -5 -70 -22 -57 -22 17 0 63 0 64 28 64 15 0 31 -3
35 -5z m105 -5 c7 -7 12 -36 12 -65 l0 -53 -45 0 c-75 0 -83 61 -9 75 33 6 35
8 22 22 -13 12 -19 13 -36 2 -27 -17 -43 -2 -18 17 24 17 58 18 74 2z m132 -3
c17 -21 6 -29 -20 -15 -37 20 -62 -17 -44 -64 7 -19 35 -21 52 -4 15 15 26 4
19 -17 -11 -26 -74 -20 -93 10 -39 60 42 144 86 90z m140 -50 c0 -37 -4 -65
-10 -65 -6 0 -10 28 -10 65 0 37 4 65 10 65 6 0 10 -28 10 -65z m60 19 c14
-50 22 -48 40 9 6 20 18 37 25 37 11 0 10 -13 -8 -62 -29 -81 -47 -85 -71 -16
-11 29 -21 59 -24 66 -2 6 3 12 11 12 9 0 19 -18 27 -46z m182 29 c10 -9 18
-27 18 -40 0 -21 -4 -23 -46 -23 -32 0 -44 -4 -41 -12 2 -8 20 -12 46 -11 36
2 41 0 31 -13 -21 -24 -77 -18 -96 11 -40 62 34 137 88 88z m-11824 -354 c-2
-6 -8 -10 -13 -10 -5 0 -11 4 -13 10 -2 6 4 11 13 11 9 0 15 -5 13 -11z m-535
-41 c9 -7 18 -24 19 -38 3 -23 -1 -25 -39 -28 -44 -3 -57 -17 -27 -29 9 -3 25
-1 35 5 13 8 20 9 25 1 9 -16 -15 -29 -53 -29 -36 0 -53 21 -53 66 0 52 53 82
93 52z m67 -8 c6 -11 15 -20 20 -20 5 0 12 9 15 20 3 11 13 20 21 20 18 0 18
-6 -3 -40 -15 -27 -15 -30 0 -54 9 -14 17 -28 17 -31 0 -13 -23 -3 -40 17
l-17 22 -7 -22 c-4 -12 -14 -22 -22 -22 -18 0 -18 10 2 38 14 21 14 25 -5 57
-16 28 -17 35 -6 35 8 0 19 -9 25 -20z m192 3 c21 -19 24 -71 5 -97 -10 -14
-23 -17 -45 -14 -30 4 -32 2 -32 -24 0 -18 -5 -28 -15 -28 -12 0 -15 16 -15
83 0 46 2 86 5 89 13 12 80 6 97 -9z m130 0 c10 -9 18 -27 18 -40 0 -21 -4
-23 -45 -23 -35 0 -43 -3 -39 -15 7 -17 49 -20 59 -5 4 6 11 8 16 4 18 -11
-13 -34 -46 -34 -39 0 -58 20 -58 60 0 58 55 89 95 53z m108 7 c0 -5 -9 -12
-20 -15 -16 -5 -20 -15 -20 -56 0 -37 -4 -49 -15 -49 -12 0 -15 14 -15 64 l0
64 35 0 c19 0 35 -4 35 -8z m40 -55 c0 -51 -3 -65 -15 -65 -12 0 -15 13 -15
58 0 32 3 62 7 65 17 17 23 2 23 -58z m122 48 c10 -9 18 -27 18 -40 0 -21 -4
-23 -46 -23 -32 0 -44 -4 -41 -12 2 -8 20 -12 46 -11 36 2 41 0 31 -13 -21
-24 -77 -18 -96 11 -40 62 34 137 88 88z m133 -6 c20 -29 20 -107 0 -107 -11
0 -15 12 -15 49 0 35 -4 51 -16 55 -26 10 -34 -3 -34 -55 0 -37 -4 -49 -15
-49 -12 0 -15 14 -15 63 l0 63 40 1 c30 2 43 -3 55 -20z m130 3 c20 -22 6 -27
-24 -8 -35 21 -63 -20 -45 -66 7 -18 39 -22 49 -6 3 6 13 10 22 10 26 0 -4
-28 -39 -35 -38 -9 -61 12 -61 54 0 61 61 92 98 51z m125 0 c28 -28 25 -47
-10 -54 -16 -3 -43 -9 -60 -12 -27 -5 -30 -3 -30 20 0 31 32 66 60 66 11 0 29
-9 40 -20z m120 5 c18 -21 6 -29 -19 -13 -16 10 -23 10 -32 1 -10 -10 -5 -16
22 -28 l34 -15 -40 2 c-29 2 -41 8 -43 21 -8 40 51 64 78 32z m5 -105 c-3 -5
-23 -10 -43 -9 -33 1 -34 2 -12 9 36 12 62 12 55 0z m65 0 c0 -5 -7 -10 -15
-10 -8 0 -15 5 -15 10 0 6 7 10 15 10 8 0 15 -4 15 -10z m-1295 -549 c-16 -10
-32 -16 -35 -14 -8 7 32 33 49 33 9 0 3 -8 -14 -19z m2530 -8 c-8 -35 -101
-174 -155 -232 -22 -24 -40 -47 -40 -52 0 -5 -4 -9 -8 -9 -5 0 -46 -34 -93
-76 -46 -42 -119 -105 -162 -140 l-79 -64 -999 0 c-989 0 -999 0 -1019 20 -19
19 -20 31 -18 247 l3 227 103 53 102 53 1186 0 1186 0 -7 -27z m3199 1 c24
-23 24 -535 0 -558 -14 -14 -155 -16 -1409 -16 -1254 0 -1395 2 -1409 16 -14
13 -16 53 -16 279 0 226 2 266 16 279 14 14 155 16 1409 16 1254 0 1395 -2
1409 -16z m-3149 -531 c-10 -40 -33 -44 -266 -41 l-221 3 68 55 c114 92 305
293 364 383 l55 84 3 -231 c1 -127 0 -241 -3 -253z"/>
<path d="M16900 7591 c-21 -41 30 -82 57 -45 17 23 16 29 -3 48 -21 21 -41 20
-54 -3z"/>
<path d="M16883 7500 c-13 -5 -23 -16 -23 -24 0 -20 39 -46 70 -46 31 0 70 26
70 46 0 28 -71 42 -117 24z"/>
<path d="M15878 7599 c-10 -5 -23 -19 -29 -30 -24 -45 52 -94 89 -57 20 20 14
65 -10 82 -26 19 -27 19 -50 5z"/>
<path d="M3440 7550 c0 -27 3 -31 23 -28 16 2 22 10 22 28 0 18 -6 26 -22 28
-20 3 -23 -1 -23 -28z"/>
<path d="M3765 7521 c-8 -26 4 -51 25 -51 10 0 21 7 24 16 10 25 -3 54 -24 54
-10 0 -21 -8 -25 -19z"/>
<path d="M8505 7569 c-10 -15 3 -25 16 -12 7 7 7 13 1 17 -6 3 -14 1 -17 -5z"/>
<path d="M8497 7503 c-14 -13 -6 -33 13 -33 11 0 20 4 20 9 0 13 -26 32 -33
24z"/>
<path d="M3644 7526 c-10 -27 1 -51 24 -54 21 -3 23 0 20 30 -3 35 -33 52 -44
24z"/>
<path d="M4967 7534 c-4 -4 -7 -20 -7 -36 0 -25 4 -29 23 -26 17 2 22 10 22
33 0 29 -22 45 -38 29z"/>
<path d="M5394 7516 c-7 -30 1 -46 26 -46 21 0 33 25 25 51 -9 28 -43 24 -51
-5z"/>
<path d="M6375 7530 c-4 -6 5 -10 19 -10 14 0 26 5 26 10 0 6 -9 10 -19 10
-11 0 -23 -4 -26 -10z"/>
<path d="M6500 7490 c-13 -9 -13 -11 0 -19 9 -6 19 -6 27 1 28 23 5 39 -27 18z"/>
<path d="M6995 7521 c-8 -26 4 -51 25 -51 10 0 21 7 24 16 10 25 -3 54 -24 54
-10 0 -21 -8 -25 -19z"/>
<path d="M7884 7516 c-7 -30 1 -46 25 -46 22 0 32 30 19 54 -13 24 -37 20 -44
-8z"/>
<path d="M8014 7516 c-7 -30 1 -46 25 -46 22 0 32 30 19 54 -13 24 -37 20 -44
-8z"/>
<path d="M8136 7522 c-10 -30 4 -53 28 -50 31 4 30 62 -1 66 -14 2 -23 -3 -27
-16z"/>
<path d="M8825 7530 c-4 -6 5 -10 20 -10 15 0 24 4 20 10 -3 6 -12 10 -20 10
-8 0 -17 -4 -20 -10z"/>
<path d="M9320 7530 c0 -5 9 -10 20 -10 11 0 20 5 20 10 0 6 -9 10 -20 10 -11
0 -20 -4 -20 -10z"/>
<path d="M10204 7526 c-10 -27 1 -51 24 -54 21 -3 23 0 20 30 -3 35 -33 52
-44 24z"/>
<path d="M1850 5915 c0 -37 3 -45 18 -45 24 0 42 19 42 45 0 26 -18 45 -42 45
-15 0 -18 -8 -18 -45z"/>
<path d="M1990 5950 c-23 -23 -25 -39 -7 -64 27 -37 76 -1 64 46 -9 35 -33 42
-57 18z"/>
<path d="M2540 5950 c-23 -23 -25 -39 -7 -64 27 -37 76 -1 64 46 -9 35 -33 42
-57 18z"/>
<path d="M2676 5925 c-9 -23 -8 -25 9 -25 17 0 19 9 6 28 -7 11 -10 10 -15 -3z"/>
<path d="M2790 5915 c0 -37 3 -45 18 -45 24 0 42 19 42 45 0 26 -18 45 -42 45
-15 0 -18 -8 -18 -45z"/>
<path d="M4616 4985 c-89 -31 -128 -89 -134 -198 -4 -57 0 -75 23 -122 37 -77
94 -110 185 -109 93 1 143 32 186 114 26 52 24 162 -4 217 -48 92 -157 134
-256 98z"/>
<path d="M8585 4991 c-113 -28 -160 -101 -153 -235 3 -59 9 -81 31 -114 45
-69 129 -100 220 -81 132 28 196 194 127 328 -25 50 -73 87 -130 100 -51 12
-53 12 -95 2z"/>
<path d="M10403 4924 l-1 -76 51 5 c37 3 56 11 69 27 43 53 2 120 -74 120
l-43 0 -2 -76z"/>
<path d="M2900 3825 l0 -78 52 5 c60 6 78 24 78 79 0 46 -17 61 -80 67 l-50 5
0 -78z"/>
<path d="M4482 3742 c-17 -49 -32 -92 -32 -96 0 -3 31 -6 70 -6 l69 0 -24 63
c-13 35 -29 78 -37 96 l-13 33 -33 -90z"/>
<path d="M1850 2375 l0 -65 29 0 c34 0 61 30 61 67 0 30 -34 63 -65 63 -24 0
-25 -2 -25 -65z"/>
<path d="M2782 2391 c-8 -5 -12 -22 -10 -42 2 -26 8 -35 25 -37 17 -3 24 3 29
24 10 41 -15 74 -44 55z"/>
<path d="M3842 2388 c-26 -26 -8 -83 24 -76 23 4 33 66 12 79 -17 12 -22 11
-36 -3z"/>
<path d="M5652 2391 c-8 -5 -12 -22 -10 -42 2 -26 8 -35 25 -37 17 -3 24 3 29
24 10 41 -15 74 -44 55z"/>
<path d="M9470 2376 c0 -63 1 -66 24 -66 14 0 32 10 40 22 31 44 14 91 -36
104 l-28 6 0 -66z"/>
<path d="M9952 2388 c-26 -26 -8 -83 24 -76 23 4 31 52 13 74 -14 17 -21 18
-37 2z"/>
<path d="M10300 2376 c0 -59 2 -66 20 -66 34 0 63 38 56 73 -8 38 -13 44 -48
52 l-28 7 0 -66z"/>
<path d="M13022 2388 c-26 -26 -8 -83 24 -76 23 4 33 66 12 79 -17 12 -22 11
-36 -3z"/>
<path d="M2021 2386 c-7 -8 -11 -27 -9 -43 2 -22 8 -28 28 -28 20 0 26 6 28
28 3 27 -12 57 -28 57 -4 0 -13 -6 -19 -14z"/>
<path d="M2522 2391 c-8 -5 -12 -22 -10 -42 2 -29 7 -34 28 -34 20 0 26 6 28
28 2 16 -2 35 -9 43 -13 16 -19 17 -37 5z"/>
<path d="M2663 2342 c-13 -2 -23 -10 -23 -18 0 -19 39 -18 47 1 7 20 4 22 -24
17z"/>
<path d="M3203 2393 c-26 -10 -13 -33 17 -33 32 0 37 9 18 28 -13 13 -16 13
-35 5z"/>
<path d="M3572 2388 c-23 -23 -11 -78 17 -78 38 0 54 46 25 74 -19 19 -26 20
-42 4z"/>
<path d="M4382 2388 c-24 -24 -11 -78 19 -78 17 0 39 27 39 49 0 11 -28 41
-39 41 -4 0 -12 -5 -19 -12z"/>
<path d="M4780 2379 c-16 -29 -4 -69 20 -69 18 0 40 26 40 49 0 12 -28 41 -40
41 -5 0 -14 -9 -20 -21z"/>
<path d="M4922 2391 c-8 -5 -12 -22 -10 -42 2 -29 7 -34 28 -34 20 0 26 6 28
28 2 16 -2 35 -9 43 -13 16 -19 17 -37 5z"/>
<path d="M5062 2391 c-8 -5 -12 -22 -10 -42 2 -26 8 -35 25 -37 17 -3 24 3 29
24 10 41 -15 74 -44 55z"/>
<path d="M5383 2342 c-13 -2 -23 -10 -23 -18 0 -19 39 -18 47 1 7 20 4 22 -24
17z"/>
<path d="M5793 2393 c-26 -10 -13 -33 17 -33 32 0 37 9 18 28 -13 13 -16 13
-35 5z"/>
<path d="M6032 2388 c-19 -19 -14 -28 18 -28 32 0 42 23 14 34 -20 8 -18 8
-32 -6z"/>
<path d="M6221 2386 c-7 -8 -11 -27 -9 -43 2 -22 8 -28 28 -28 20 0 26 6 28
28 3 27 -12 57 -28 57 -4 0 -13 -6 -19 -14z"/>
<path d="M6362 2391 c-8 -5 -12 -22 -10 -42 2 -26 8 -35 25 -37 17 -3 24 3 29
24 10 41 -15 74 -44 55z"/>
<path d="M6687 2388 c-10 -5 -15 -13 -12 -19 10 -15 55 -11 55 5 0 19 -22 26
-43 14z"/>
<path d="M7101 2386 c-20 -24 -10 -70 16 -74 17 -3 24 3 29 24 11 44 -21 79
-45 50z"/>
<path d="M7275 2330 c-8 -12 20 -24 35 -15 5 3 10 10 10 16 0 12 -37 12 -45
-1z"/>
<path d="M7571 2386 c-7 -8 -11 -27 -9 -43 2 -22 8 -28 28 -28 20 0 26 6 28
28 3 27 -12 57 -28 57 -4 0 -13 -6 -19 -14z"/>
<path d="M8127 2388 c-29 -16 -19 -78 14 -78 23 0 40 30 33 58 -7 25 -25 33
-47 20z"/>
<path d="M8613 2393 c-24 -9 -13 -23 18 -23 27 0 30 2 19 15 -13 16 -17 17
-37 8z"/>
<path d="M8753 2342 c-13 -2 -23 -10 -23 -18 0 -19 39 -18 47 1 7 20 4 22 -24
17z"/>
<path d="M9132 2388 c-28 -28 -3 -85 32 -72 22 8 22 70 0 78 -20 8 -18 8 -32
-6z"/>
<path d="M9702 2339 c-26 -10 -21 -29 8 -29 18 0 35 26 22 34 -4 2 -17 0 -30
-5z"/>
<path d="M11040 2379 c-16 -29 -4 -69 20 -69 18 0 40 26 40 49 0 12 -28 41
-40 41 -5 0 -14 -9 -20 -21z"/>
<path d="M11243 2342 c-13 -2 -23 -10 -23 -18 0 -19 39 -18 47 1 7 20 4 22
-24 17z"/>
<path d="M11515 2384 c-25 -26 -16 -74 15 -74 26 0 43 26 36 54 -7 30 -31 40
-51 20z"/>
<path d="M11992 2388 c-28 -28 -2 -88 33 -74 21 8 20 72 -1 80 -20 8 -18 8
-32 -6z"/>
<path d="M12138 2343 c-10 -2 -18 -11 -18 -19 0 -22 44 -14 48 9 4 17 1 18
-30 10z"/>
<path d="M12453 2393 c-26 -10 -13 -33 17 -33 32 0 37 9 18 28 -13 13 -16 13
-35 5z"/>
<path d="M12773 2342 c-13 -2 -23 -10 -23 -18 0 -19 39 -18 47 1 7 20 4 22
-24 17z"/>
<path d="M13493 2393 c-26 -10 -13 -33 17 -33 32 0 37 9 18 28 -13 13 -16 13
-35 5z"/>
<path d="M13713 2340 c-31 -12 -29 -30 2 -30 14 0 25 2 25 4 0 2 3 11 6 20 7
18 0 19 -33 6z"/>
<path d="M14212 2388 c-19 -19 -14 -28 18 -28 32 0 42 23 14 34 -20 8 -18 8
-32 -6z"/>
<path d="M1863 1993 c-26 -10 -13 -33 17 -33 32 0 37 9 18 28 -13 13 -16 13
-35 5z"/>
<path d="M2112 1988 c-26 -26 -8 -83 24 -76 23 4 33 66 12 79 -17 12 -22 11
-36 -3z"/>
<path d="M2242 1988 c-20 -20 -14 -28 19 -28 24 0 30 4 27 17 -4 22 -29 28
-46 11z"/>
<path d="M2512 1988 c-19 -19 -14 -28 18 -28 32 0 42 23 14 34 -20 8 -18 8
-32 -6z"/>
<path d="M2903 1993 c-26 -10 -13 -33 17 -33 32 0 37 9 18 28 -13 13 -16 13
-35 5z"/>
<path d="M4775 1327 c-3 -7 -4 -129 -3 -272 l3 -260 1400 0 1400 0 3 259 c2
182 -1 263 -9 272 -16 20 -2787 21 -2794 1z m310 -202 c27 -26 31 -54 14 -88
-17 -31 -28 -37 -76 -37 l-43 0 0 75 0 75 40 0 c30 0 47 -7 65 -25z m483 -53
c3 -67 1 -72 -18 -72 -18 0 -20 6 -20 68 0 38 3 72 7 76 18 17 28 -7 31 -72z
m362 4 l0 -75 -47 2 c-42 2 -49 5 -57 29 -7 19 -6 35 2 54 10 22 18 25 42 22
26 -4 30 -1 30 19 0 14 6 23 15 23 12 0 15 -15 15 -74z m300 51 c0 -18 5 -22
33 -22 32 0 32 -1 35 -52 2 -43 0 -53 -12 -53 -12 0 -16 10 -16 38 0 43 -6 53
-26 45 -9 -3 -14 -20 -14 -44 0 -28 -4 -39 -15 -39 -12 0 -15 15 -15 75 0 60
3 75 15 75 9 0 15 -9 15 -23z m788 12 c-2 -6 -8 -10 -13 -10 -5 0 -11 4 -13
10 -2 6 4 11 13 11 9 0 15 -5 13 -11z m-858 -13 c0 -8 6 -17 13 -20 10 -5 10
-7 0 -12 -15 -7 -18 -74 -3 -74 6 0 10 -5 10 -11 0 -6 -10 -9 -22 -7 -19 2
-24 10 -26 43 -2 22 -9 44 -15 48 -9 6 -9 10 1 14 6 2 12 11 12 19 0 8 7 14
15 14 8 0 15 -6 15 -14z m-940 -35 c14 -26 13 -64 -2 -79 -7 -7 -27 -12 -45
-12 -33 0 -53 21 -53 56 0 47 78 74 100 35z m58 -13 l9 -33 7 33 c5 21 13 32
26 32 12 0 20 -11 25 -32 l7 -33 9 33 c5 17 16 32 24 32 18 0 18 5 0 -58 -18
-58 -39 -68 -57 -24 l-11 27 -6 -25 c-11 -42 -42 -32 -57 20 -17 57 -17 60 1
60 8 0 18 -14 23 -32z m232 13 c5 -11 10 -36 10 -55 0 -29 -4 -36 -19 -36 -16
0 -20 8 -23 43 -2 23 -7 42 -13 42 -5 0 -11 -19 -13 -42 -3 -35 -7 -43 -23
-43 -16 0 -19 7 -19 55 l0 55 45 0 c34 0 47 -5 55 -19z m170 0 c14 -26 13 -64
-2 -79 -7 -7 -27 -12 -45 -12 -33 0 -53 21 -53 56 0 47 78 74 100 35z m118
-38 l3 -53 -39 0 c-24 0 -45 6 -53 16 -11 14 -10 19 10 35 13 11 29 19 37 19
8 0 14 5 14 11 0 7 -11 8 -32 3 -30 -6 -31 -5 -19 10 9 11 26 16 45 14 30 -3
31 -5 34 -55z m292 42 c7 -8 13 -26 13 -40 0 -34 -20 -55 -53 -55 -33 0 -52
21 -52 55 0 34 19 55 52 55 15 0 33 -7 40 -15z m318 3 c7 -7 12 -20 12 -30 0
-14 -8 -18 -36 -18 -24 0 -34 -4 -31 -12 2 -8 18 -12 36 -10 23 2 32 -2 29
-10 -6 -17 -66 -22 -84 -7 -17 14 -19 70 -2 87 15 15 61 15 76 0z m102 3 c0
-5 -9 -13 -20 -16 -16 -5 -20 -15 -20 -46 0 -28 -4 -39 -15 -39 -12 0 -15 13
-15 55 l0 55 35 0 c19 0 35 -4 35 -9z m97 -28 l10 -38 8 33 c7 30 29 52 40 40
2 -2 -3 -28 -12 -56 -23 -71 -49 -69 -74 6 -17 50 -17 52 0 52 12 0 21 -12 28
-37z m161 25 c7 -7 12 -20 12 -30 0 -14 -8 -18 -36 -18 -24 0 -34 -4 -31 -12
2 -8 18 -12 36 -10 23 2 32 -2 29 -10 -6 -17 -66 -22 -84 -7 -17 14 -19 70 -2
87 15 15 61 15 76 0z m102 3 c0 -5 -9 -13 -20 -16 -16 -5 -20 -15 -20 -46 0
-28 -4 -39 -15 -39 -12 0 -15 13 -15 55 l0 55 35 0 c19 0 35 -4 35 -9z m98
-10 c3 -10 -3 -12 -27 -6 -40 9 -40 -7 0 -22 24 -9 30 -17 27 -35 -3 -20 -9
-23 -42 -23 -24 0 -41 5 -44 14 -3 10 3 12 27 6 40 -8 40 7 1 22 -29 11 -40
39 -23 57 12 12 76 2 81 -13z m52 -36 c0 -42 -3 -55 -15 -55 -12 0 -15 13 -15
55 0 42 3 55 15 55 12 0 15 -13 15 -55z m117 29 c15 -24 15 -29 2 -53 -16 -29
-61 -40 -85 -20 -17 14 -19 70 -2 87 22 22 66 14 85 -14z m121 -31 c2 -43 0
-53 -12 -53 -12 0 -16 10 -16 38 0 21 -3 42 -7 45 -13 13 -33 -16 -33 -49 0
-24 -5 -34 -15 -34 -11 0 -15 13 -15 54 l0 55 48 -2 47 -2 3 -52z m113 40 c13
-15 11 -16 -18 -10 -41 8 -43 -8 -3 -22 51 -17 32 -61 -26 -61 -20 0 -34 6
-38 16 -5 13 -1 14 24 9 37 -8 41 10 5 19 -14 4 -28 13 -32 21 -14 39 60 62
88 28z"/>
<path d="M5010 1069 c0 -43 3 -50 16 -45 9 3 20 6 24 6 19 0 30 38 20 64 -7
19 -17 26 -35 26 -23 0 -25 -3 -25 -51z"/>
<path d="M5861 1076 c-15 -18 -5 -56 14 -56 21 0 30 40 13 57 -13 12 -16 12
-27 -1z"/>
<path d="M5161 1076 c-17 -20 -4 -58 17 -54 11 2 17 13 17 32 0 33 -16 44 -34
22z"/>
<path d="M5620 1075 c-14 -17 -4 -55 15 -55 20 0 28 17 21 46 -7 27 -18 30
-36 9z"/>
<path d="M5753 1043 c-18 -7 -16 -23 2 -23 8 0 15 7 15 15 0 8 -1 15 -2 14 -2
0 -9 -3 -15 -6z"/>
<path d="M6034 1076 c-9 -23 0 -51 16 -51 10 0 15 10 15 29 0 32 -21 47 -31
22z"/>
<path d="M6355 1080 c-3 -5 3 -10 15 -10 12 0 18 5 15 10 -3 6 -10 10 -15 10
-5 0 -12 -4 -15 -10z"/>
<path d="M6715 1080 c-3 -5 3 -10 15 -10 12 0 18 5 15 10 -3 6 -10 10 -15 10
-5 0 -12 -4 -15 -10z"/>
<path d="M7074 1076 c-9 -23 0 -51 16 -51 10 0 15 10 15 29 0 32 -21 47 -31
22z"/>
</g>
</svg>
